# xmcd CD database file
#
# Track frame offsets:
#	150
#	20350
#	35890
#	52420
#	71110
#	88380
#	106854
#	124490
#	141632
#	162732
#	175192
#	194940
#	216827
#	232055
#	247227
#	266152
#	285777
#	306020
#	325269
#
# Disc length: 4600 seconds
#
# Revision: 3
# Processed by: cddbd v1.5.2PL0 Copyright (c) Steve Scherf et al.
# Submitted via: CDex 1.50
#
DISCID=4211f613
DTITLE=Maurane - L'un pour l'autre
DYEAR=1998
DGENRE=Variété Française
TTITLE0=L'un pour l'autre
TTITLE1=C'est la vie qui décide
TTITLE2=Désillusioniste
TTITLE3=J'tai pas tout dit
TTITLE4=C'est magique
TTITLE5=Alfonsina Y el mar
TTITLE6=Toutes les mamas
TTITLE7=Tout pour un seul homme
TTITLE8=Différente quand je chante
TTITLE9=Chanson de l'autruche
TTITLE10=Tant c'était bon
TTITLE11=Sur un prélude de Bach
TTITLE12=Danser
TTITLE13=Les uns contre les autres
TTITLE14=Ca casse
TTITLE15=Lou et louis
TTITLE16=Pas gaie la pagaille
TTITLE17=Du mal
TTITLE18=Juste une petite fille
EXTD=YEAR: 1998
EXTT0=
EXTT1=
EXTT2=
EXTT3=
EXTT4=
EXTT5=
EXTT6=
EXTT7=
EXTT8=
EXTT9=
EXTT10=
EXTT11=
EXTT12=
EXTT13=
EXTT14=
EXTT15=
EXTT16=
EXTT17=
EXTT18=
PLAYORDER=
